<svg width="30" height="34" viewBox="0 0 30 34" fill="none" xmlns="http://www.w3.org/2000/svg">
<rect x="3" y="5" width="22" height="22" fill="#B1C3EC"/>
<path d="M7.56 27H1.32V10.488H8.064C10.704 10.488 12.64 10.856 13.872 11.592C15.104 12.312 15.72 13.312 15.72 14.592C15.72 16.256 14.848 17.4 13.104 18.024C15.344 18.456 16.464 19.776 16.464 21.984C16.464 23.68 15.688 24.944 14.136 25.776C12.6 26.592 10.408 27 7.56 27ZM6.672 17.016H8.568C9.208 17.016 9.728 16.872 10.128 16.584C10.528 16.296 10.728 15.912 10.728 15.432C10.728 14.328 9.976 13.776 8.472 13.776H6.672V17.016ZM8.712 23.616C9.512 23.616 10.128 23.456 10.56 23.136C10.992 22.816 11.208 22.368 11.208 21.792C11.208 21.168 10.992 20.688 10.56 20.352C10.128 20 9.512 19.824 8.712 19.824H6.648V23.616H8.712Z" fill="#2A488F"/>
<path d="M19.9092 14.4053C20.7775 12.3877 21.3458 8.43446 16.6728 8.76243L27.2247 8.02187L21.3366 13.1598L19.9092 14.4053Z" stroke="#2A488F"/>
<path d="M20.3858 10.6411L26.9354 8.19509" stroke="#2A488F"/>
<path d="M16.4196 19.7917C16.4196 19.7917 18.3469 20.6017 19.6248 19.2103M19.6248 19.2103C21.3152 17.7665 19.6132 16.0177 17.688 15.7827C15.7628 15.5477 14.4277 16.9671 19.6248 19.2103ZM19.6248 19.2103C22.788 19.9643 24.3846 18.9356 23.4669 17.3581" stroke="white" stroke-width="0.5"/>
</svg>
