<svg width="108" height="34" viewBox="0 0 108 34" fill="none" xmlns="http://www.w3.org/2000/svg">
<rect y="14" width="103" height="15" fill="#B1C3EC"/>
<path d="M86.7068 29.7982C86.5272 30.0042 85.9573 30.4186 85.555 30.7171C85.2398 30.951 84.869 31.1447 84.5312 31.3522C84.1942 31.5598 83.8319 31.7666 83.5206 31.8968C83.4424 31.9228 83.3655 31.9485 83.2084 31.9749" stroke="#2A488F" stroke-linecap="round"/>
<path d="M11.56 27H5.32V10.488H12.064C14.704 10.488 16.64 10.856 17.872 11.592C19.104 12.312 19.72 13.312 19.72 14.592C19.72 16.256 18.848 17.4 17.104 18.024C19.344 18.456 20.464 19.776 20.464 21.984C20.464 23.68 19.688 24.944 18.136 25.776C16.6 26.592 14.408 27 11.56 27ZM10.672 17.016H12.568C13.208 17.016 13.728 16.872 14.128 16.584C14.528 16.296 14.728 15.912 14.728 15.432C14.728 14.328 13.976 13.776 12.472 13.776H10.672V17.016ZM12.712 23.616C13.512 23.616 14.128 23.456 14.56 23.136C14.992 22.816 15.208 22.368 15.208 21.792C15.208 21.168 14.992 20.688 14.56 20.352C14.128 20 13.512 19.824 12.712 19.824H10.648V23.616H12.712ZM22.2625 27V14.976H27.2545V17.976C27.5745 16.888 28.0705 16.088 28.7425 15.576C29.4305 15.064 30.2465 14.808 31.1905 14.808L31.7905 19.056C31.4065 19.008 31.0305 18.984 30.6625 18.984C28.4385 18.984 27.3265 19.896 27.3265 21.72V27H22.2625ZM40.1093 23.832C40.5733 23.832 41.0613 23.784 41.5733 23.688C42.1013 23.592 42.6373 23.416 43.1813 23.16L43.7573 26.256C43.1653 26.56 42.5173 26.792 41.8133 26.952C41.1253 27.112 40.3333 27.192 39.4373 27.192C37.8213 27.192 36.4613 26.928 35.3573 26.4C34.2693 25.872 33.4453 25.144 32.8853 24.216C32.3253 23.288 32.0453 22.216 32.0453 21C32.0453 19.752 32.3413 18.664 32.9333 17.736C33.5413 16.808 34.3493 16.088 35.3573 15.576C36.3653 15.064 37.4773 14.808 38.6933 14.808C40.5013 14.808 41.8853 15.376 42.8453 16.512C43.8053 17.632 44.2853 19.232 44.2853 21.312L37.1333 22.224C37.6613 23.296 38.6533 23.832 40.1093 23.832ZM36.7493 20.016L40.5173 19.224C40.4533 18.712 40.2773 18.336 39.9893 18.096C39.7013 17.84 39.3413 17.712 38.9093 17.712C38.2693 17.712 37.7573 17.936 37.3733 18.384C37.0053 18.816 36.7973 19.36 36.7493 20.016ZM53.4218 23.832C53.8858 23.832 54.3738 23.784 54.8858 23.688C55.4138 23.592 55.9498 23.416 56.4938 23.16L57.0698 26.256C56.4778 26.56 55.8298 26.792 55.1258 26.952C54.4378 27.112 53.6458 27.192 52.7498 27.192C51.1338 27.192 49.7738 26.928 48.6698 26.4C47.5818 25.872 46.7578 25.144 46.1978 24.216C45.6378 23.288 45.3578 22.216 45.3578 21C45.3578 19.752 45.6538 18.664 46.2458 17.736C46.8538 16.808 47.6618 16.088 48.6698 15.576C49.6778 15.064 50.7898 14.808 52.0058 14.808C53.8138 14.808 55.1978 15.376 56.1578 16.512C57.1178 17.632 57.5978 19.232 57.5978 21.312L50.4458 22.224C50.9738 23.296 51.9658 23.832 53.4218 23.832ZM50.0618 20.016L53.8298 19.224C53.7658 18.712 53.5898 18.336 53.3018 18.096C53.0138 17.84 52.6538 17.712 52.2218 17.712C51.5818 17.712 51.0698 17.936 50.6858 18.384C50.3178 18.816 50.1098 19.36 50.0618 20.016ZM58.7903 27V24.432L63.1343 18.288H58.9583V14.976H68.9423V17.568L64.8143 23.688H69.0383V27H58.7903ZM77.3011 31.68C76.6931 31.68 76.1251 31.64 75.5971 31.56C75.0691 31.48 74.6531 31.384 74.3491 31.272L74.7331 27.792C75.0211 27.856 75.3331 27.904 75.6691 27.936C76.0051 27.984 76.3331 28.008 76.6531 28.008C77.7251 28.008 78.4931 27.784 78.9571 27.336C79.4371 26.888 79.6771 26.2 79.6771 25.272V23.904C79.2931 24.88 78.7491 25.592 78.0451 26.04C77.3411 26.472 76.5091 26.688 75.5491 26.688C74.0611 26.688 72.9091 26.152 72.0931 25.08C71.2771 23.992 70.8691 22.464 70.8691 20.496V14.976H75.9331V20.76C75.9331 22.184 76.4371 22.896 77.4451 22.896C78.0691 22.896 78.5651 22.64 78.9331 22.128C79.3171 21.616 79.5091 20.944 79.5091 20.112V14.976H84.5731V24.192C84.5731 26.752 83.9411 28.64 82.6771 29.856C81.4131 31.072 79.6211 31.68 77.3011 31.68Z" fill="#2A488F"/>
<path d="M88.9933 20.9538V25.0867" stroke="white" stroke-linecap="round"/>
<path d="M88.9933 19.0752C88.9933 18.9513 88.9933 18.2675 89.0243 17.2352C89.1172 16.6369 89.3671 16.0733 89.7109 15.4167C89.8687 15.1321 89.9927 14.9462 90.1204 14.5667" stroke="white" stroke-linecap="round"/>
<path d="M91.4354 12.6881C91.8712 12.0644 92.7466 11.313 93.6549 10.4996C94.0616 10.1859 94.4392 9.93413 94.907 9.65329C95.1888 9.49643 95.5607 9.31045 96.1318 9.11884" stroke="#2A488F" stroke-linecap="round"/>
<path d="M89.039 26.844C89.0134 27.0244 88.91 27.3867 88.7416 27.698C88.599 28.0094 88.3922 28.3195 88.1201 28.5664C88.0548 28.6313 88.0035 28.7083 87.7952 28.8653" stroke="white" stroke-linecap="round"/>
<path d="M97.9092 12.4053C98.7775 10.3877 99.3458 6.43446 94.6728 6.76243L105.225 6.02187L99.3366 11.1598L97.9092 12.4053Z" stroke="#2A488F"/>
<path d="M98.3858 8.6411L104.935 6.19509" stroke="#2A488F"/>
</svg>
