<svg width="407" height="303" viewBox="0 0 407 303" fill="none" xmlns="http://www.w3.org/2000/svg">
<rect width="407" height="303" rx="20" fill="white"/>
<g clip-path="url(#clip0_21_3)">
<path d="M249.019 120.441C257.794 122.635 267.535 132.857 272.746 139.804C293.971 168.105 296.116 196.82 282.564 228.441C259.036 283.338 165.019 272.636 144.874 220.192" stroke="#27458A" stroke-width="10" stroke-miterlimit="10" stroke-linecap="round" stroke-linejoin="round"/>
<path d="M136.299 177.391C100.373 177.391 118.661 245.659 145.271 219.049" stroke="#27458A" stroke-width="10" stroke-miterlimit="10" stroke-linecap="round" stroke-linejoin="round"/>
<path d="M138.863 179.635L143.028 182.518" stroke="#27458A" stroke-width="10" stroke-miterlimit="10" stroke-linecap="round" stroke-linejoin="round"/>
<path d="M143.349 182.839C144.535 180.467 175.583 179.373 180.52 178.994C214.115 176.409 247.908 173.226 281.458 173.226" stroke="#27458A" stroke-width="10" stroke-miterlimit="10" stroke-linecap="round" stroke-linejoin="round"/>
<path d="M200.067 199.822C199.853 199.929 199.639 200.036 199.426 200.143" stroke="#27458A" stroke-width="10" stroke-miterlimit="10" stroke-linecap="round" stroke-linejoin="round"/>
<path d="M236.597 196.297C236.17 197.152 236.49 196.831 235.635 197.259" stroke="#27458A" stroke-width="10" stroke-miterlimit="10" stroke-linecap="round" stroke-linejoin="round"/>
<path d="M251.723 120.441C247.883 118.964 253.623 120.441 235.635 112.923C226.176 108.969 209.457 109.551 200.067 110.478C180.878 112.373 165.809 125.3 155.338 140.261C148.538 149.977 142.165 169.695 140.945 179.635" stroke="#27458A" stroke-width="10" stroke-miterlimit="10" stroke-linecap="round" stroke-linejoin="round"/>
<path d="M158.641 131.208C144.363 117.484 119.046 124.604 107.657 138.497C91.132 158.654 92.064 190.456 82.927 214.219C79.268 223.734 73.32 227.347 65.009 231.866C64.679 232.046 64.048 232 64.002 232.373C63.757 234.367 81.054 231.748 81.414 231.675C93.5 229.229 109.479 223.042 113.401 209.768" stroke="#27458A" stroke-width="10" stroke-miterlimit="10" stroke-linecap="round" stroke-linejoin="round"/>
<path d="M189.095 152.587C193.082 157.69 189.308 168.648 192.363 174.725" stroke="#27458A" stroke-width="10" stroke-miterlimit="10" stroke-linecap="round" stroke-linejoin="round"/>
<path d="M240.825 149.485C240.607 155.084 239.187 166.49 243.625 170.305" stroke="#27458A" stroke-width="10" stroke-miterlimit="10" stroke-linecap="round" stroke-linejoin="round"/>
<path d="M129.925 195.049C132.697 198.217 136.806 204.599 137.825 208.677" stroke="#27458A" stroke-width="10" stroke-miterlimit="10" stroke-linecap="round" stroke-linejoin="round"/>
<path d="M127.753 206.504C129.341 204.916 131.102 203.55 132.69 201.962" stroke="#27458A" stroke-width="10" stroke-miterlimit="10" stroke-linecap="round" stroke-linejoin="round"/>
<path d="M209 231.5C219.739 223.465 225.761 223.283 236.5 231.5" stroke="#27458A" stroke-width="10" stroke-linecap="round"/>
<path d="M275.563 165.613C272.208 153.706 284.646 141.395 291.67 123C291.67 123 310.461 149.946 306.434 165.613C302.408 181.279 278.919 177.519 275.563 165.613Z" fill="#AFC1EB" stroke="#27458A" stroke-width="10"/>
<path d="M177.456 70.384C175.712 70.384 174.176 70.016 172.848 69.28C171.52 68.544 170.48 67.528 169.728 66.232C168.992 64.936 168.624 63.448 168.624 61.768C168.624 60.072 168.992 58.576 169.728 57.28C170.48 55.984 171.52 54.968 172.848 54.232C174.176 53.496 175.712 53.128 177.456 53.128C179.2 53.128 180.736 53.496 182.064 54.232C183.392 54.952 184.424 55.96 185.16 57.256C185.912 58.552 186.288 60.056 186.288 61.768C186.288 63.448 185.912 64.936 185.16 66.232C184.424 67.528 183.392 68.544 182.064 69.28C180.736 70.016 179.2 70.384 177.456 70.384ZM177.456 66.016C178.464 66.016 179.288 65.624 179.928 64.84C180.584 64.056 180.912 63.024 180.912 61.744C180.912 60.88 180.76 60.12 180.456 59.464C180.168 58.808 179.76 58.296 179.232 57.928C178.72 57.544 178.12 57.352 177.432 57.352C176.424 57.352 175.6 57.76 174.96 58.576C174.32 59.376 174 60.432 174 61.744C174 63.024 174.32 64.056 174.96 64.84C175.6 65.624 176.432 66.016 177.456 66.016ZM194.426 70.192C193.066 70.192 191.866 69.928 190.826 69.4C189.786 68.872 188.97 68.144 188.378 67.216C187.802 66.272 187.514 65.192 187.514 63.976C187.514 62.728 187.81 61.648 188.402 60.736C189.01 59.808 189.834 59.088 190.874 58.576C191.914 58.064 193.106 57.808 194.45 57.808C195.826 57.808 197.034 58.072 198.074 58.6C199.114 59.112 199.922 59.832 200.498 60.76C201.074 61.672 201.362 62.744 201.362 63.976C201.362 65.208 201.066 66.296 200.474 67.24C199.898 68.168 199.09 68.896 198.05 69.424C197.01 69.936 195.802 70.192 194.426 70.192ZM194.474 66.592C195.13 66.592 195.666 66.352 196.082 65.872C196.514 65.376 196.73 64.744 196.73 63.976C196.73 63.208 196.522 62.584 196.106 62.104C195.69 61.608 195.162 61.36 194.522 61.36C193.834 61.36 193.274 61.608 192.842 62.104C192.426 62.584 192.218 63.208 192.218 63.976C192.218 64.744 192.426 65.376 192.842 65.872C193.274 66.352 193.818 66.592 194.474 66.592ZM208.225 73.792L203.161 74.536V57.976H208.153V60.592C208.569 59.6 209.137 58.888 209.857 58.456C210.593 58.024 211.353 57.808 212.137 57.808C213.257 57.808 214.257 58.072 215.137 58.6C216.033 59.112 216.737 59.824 217.249 60.736C217.777 61.648 218.041 62.712 218.041 63.928C218.041 65.144 217.777 66.224 217.249 67.168C216.737 68.112 216.033 68.856 215.137 69.4C214.257 69.928 213.257 70.192 212.137 70.192C211.177 70.192 210.377 69.984 209.737 69.568C209.097 69.152 208.593 68.552 208.225 67.768V73.792ZM210.577 66.4C211.265 66.4 211.841 66.168 212.305 65.704C212.769 65.24 213.001 64.672 213.001 64C213.001 63.328 212.769 62.76 212.305 62.296C211.841 61.832 211.265 61.6 210.577 61.6C209.921 61.6 209.361 61.824 208.897 62.272C208.433 62.704 208.201 63.264 208.201 63.952C208.201 64.64 208.433 65.224 208.897 65.704C209.361 66.168 209.921 66.4 210.577 66.4ZM223.712 70.192C222.992 70.192 222.264 70.12 221.528 69.976C220.792 69.832 220.128 69.632 219.536 69.376L220.232 66.352C220.6 66.544 221.104 66.712 221.744 66.856C222.384 66.984 222.952 67.048 223.448 67.048C224.248 67.048 224.648 66.832 224.648 66.4C224.648 66.192 224.52 66.04 224.264 65.944C224.024 65.848 223.704 65.768 223.304 65.704C222.92 65.624 222.504 65.528 222.056 65.416C221.608 65.288 221.184 65.104 220.784 64.864C220.4 64.608 220.08 64.248 219.824 63.784C219.584 63.32 219.464 62.712 219.464 61.96C219.464 60.696 219.96 59.688 220.952 58.936C221.96 58.184 223.336 57.808 225.08 57.808C225.752 57.808 226.376 57.856 226.952 57.952C227.544 58.048 228.104 58.248 228.632 58.552L228.128 61.48C227.28 61.128 226.392 60.952 225.464 60.952C224.872 60.952 224.44 61 224.168 61.096C223.912 61.192 223.784 61.352 223.784 61.576C223.784 61.752 223.912 61.888 224.168 61.984C224.424 62.08 224.752 62.176 225.152 62.272C225.568 62.352 226 62.472 226.448 62.632C226.896 62.776 227.32 62.984 227.72 63.256C228.136 63.528 228.472 63.896 228.728 64.36C228.984 64.808 229.112 65.392 229.112 66.112C229.112 67.392 228.64 68.392 227.696 69.112C226.752 69.832 225.424 70.192 223.712 70.192ZM233.026 70.144C232.146 70.144 231.474 69.912 231.01 69.448C230.546 68.968 230.314 68.384 230.314 67.696C230.314 66.992 230.562 66.416 231.058 65.968C231.554 65.504 232.21 65.272 233.026 65.272C233.842 65.272 234.49 65.512 234.97 65.992C235.466 66.472 235.714 67.04 235.714 67.696C235.714 68.432 235.482 69.024 235.018 69.472C234.57 69.92 233.906 70.144 233.026 70.144ZM239.87 70.144C238.99 70.144 238.318 69.912 237.854 69.448C237.39 68.968 237.158 68.384 237.158 67.696C237.158 66.992 237.406 66.416 237.902 65.968C238.398 65.504 239.054 65.272 239.87 65.272C240.686 65.272 241.334 65.512 241.814 65.992C242.31 66.472 242.558 67.04 242.558 67.696C242.558 68.432 242.326 69.024 241.862 69.472C241.414 69.92 240.75 70.144 239.87 70.144ZM246.713 70.144C245.833 70.144 245.161 69.912 244.697 69.448C244.233 68.968 244.001 68.384 244.001 67.696C244.001 66.992 244.249 66.416 244.745 65.968C245.241 65.504 245.897 65.272 246.713 65.272C247.529 65.272 248.177 65.512 248.657 65.992C249.153 66.472 249.401 67.04 249.401 67.696C249.401 68.432 249.169 69.024 248.705 69.472C248.257 69.92 247.593 70.144 246.713 70.144Z" fill="#27458A"/>
</g>
<defs>
<clipPath id="clip0_21_3">
<rect width="288.057" height="240.881" fill="white" transform="translate(59 29)"/>
</clipPath>
</defs>
</svg>
