<svg width="642" height="415" viewBox="0 0 642 415" fill="none" xmlns="http://www.w3.org/2000/svg">
<rect width="642" height="415" rx="20" fill="white"/>
<g clip-path="url(#clip0_17_36)">
<path d="M367.554 83.118C358.778 85.312 349.037 95.534 343.826 102.481C322.601 130.782 320.456 159.497 334.008 191.118C357.888 246.839 454.388 234.977 472.554 180.481" stroke="#2A488F" stroke-width="10" stroke-miterlimit="10" stroke-linecap="round" stroke-linejoin="round"/>
<path d="M203.803 199.195C212.578 201.389 222.319 211.611 227.53 218.559C248.755 246.86 250.9 275.575 237.348 307.195C213.468 362.916 116.968 351.055 98.803 296.559" stroke="#2A488F" stroke-width="10" stroke-miterlimit="10" stroke-linecap="round" stroke-linejoin="round"/>
<path d="M328.008 145.027C324.07 146.011 338.948 143.976 340.826 143.663C350.917 141.981 361.283 142.104 371.372 140.663C401.453 136.366 431.526 139.572 461.644 139.572" stroke="#2A488F" stroke-width="10" stroke-miterlimit="10" stroke-linecap="round" stroke-linejoin="round"/>
<path d="M464.917 141.481C463.17 142.355 466.794 137.733 467.099 137.391C469.742 134.417 472.716 132.297 476.644 131.391C485.656 129.311 493.132 137.365 496.826 144.754C503.932 158.966 494.229 194.414 472.826 181.572" stroke="#2A488F" stroke-width="10" stroke-miterlimit="10" stroke-linecap="round" stroke-linejoin="round"/>
<path d="M93.267 267.257C95.203 267.516 90.274 264.321 89.875 264.096C86.41 262.142 82.909 261.102 78.898 261.52C69.7 262.479 65.244 272.524 64.149 280.712C62.042 296.462 82.729 326.839 98.803 307.744" stroke="#2A488F" stroke-width="10" stroke-miterlimit="10" stroke-linecap="round" stroke-linejoin="round"/>
<path d="M368.917 163.845C369.19 163.936 369.463 164.027 369.735 164.118" stroke="#2A488F" stroke-width="10" stroke-miterlimit="10" stroke-linecap="round" stroke-linejoin="round"/>
<path d="M414.463 156.754C414.463 157.027 414.463 157.3 414.463 157.572" stroke="#2A488F" stroke-width="10" stroke-miterlimit="10" stroke-linecap="round" stroke-linejoin="round"/>
<path d="M387.735 188.663C391.796 185.28 396.949 185.608 401.917 184.027C417.07 179.206 407.775 218.996 389.644 194.391C387.162 191.021 384.701 191.192 387.735 188.663Z" stroke="#2A488F" stroke-width="10" stroke-miterlimit="10" stroke-linecap="round" stroke-linejoin="round"/>
<path d="M374.644 106.709C373.991 105.401 374.617 115.955 374.644 116.254C375.26 123.02 375.496 130.332 376.826 136.981" stroke="#2A488F" stroke-width="10" stroke-miterlimit="10" stroke-linecap="round" stroke-linejoin="round"/>
<path d="M420.19 105.618C419.845 104.582 420.712 110.407 421.554 117.618C422.251 123.593 422.644 129.604 422.644 135.618" stroke="#2A488F" stroke-width="10" stroke-miterlimit="10" stroke-linecap="round" stroke-linejoin="round"/>
<path d="M368.917 83.1181C368.917 83.1181 377.602 74.5821 394.496 72.4431C414.08 69.9631 443.356 74.7651 461.644 90.5771C472.229 99.7291 477.675 108.181 481.787 131.058" stroke="#2A488F" stroke-width="10" stroke-miterlimit="10" stroke-linejoin="round"/>
<path d="M468.681 92.013C468.681 81.441 492.446 76.442 500.044 77.286C505.091 77.847 513.275 83.759 516.681 87.377C538.282 110.328 533.068 140.464 547.772 166.195C551.59 172.878 556.524 180.934 563.863 184.195C566.974 185.578 571.895 187.201 575.317 185.832C575.544 185.741 578.317 183.682 578.317 185.013C578.317 196.774 561.317 199.195 553.226 199.195C536.567 199.195 502.121 189.185 499.226 168.923" stroke="#2A488F" stroke-width="10" stroke-miterlimit="10" stroke-linecap="round" stroke-linejoin="round"/>
<path d="M481.226 147.104C479.367 148.034 472.772 162.122 472.772 164.559" stroke="#2A488F" stroke-width="10" stroke-miterlimit="10" stroke-linecap="round" stroke-linejoin="round"/>
<path d="M478.499 158.013C478.063 158.013 484.229 162.653 485.863 164.559" stroke="#2A488F" stroke-width="10" stroke-miterlimit="10" stroke-linecap="round" stroke-linejoin="round"/>
<path d="M160.816 270.874C161.019 270.975 161.222 271.077 161.426 271.178" stroke="#2A488F" stroke-width="10" stroke-miterlimit="10" stroke-linecap="round" stroke-linejoin="round"/>
<path d="M200.138 257.461C200.138 257.665 200.138 257.868 200.138 258.071" stroke="#2A488F" stroke-width="10" stroke-miterlimit="10" stroke-linecap="round" stroke-linejoin="round"/>
<path d="M196.746 213.006C192.344 220.482 196.969 213.303 191.331 220.646C177.763 238.317 169.77 245.622 149.735 253.569C141.582 256.803 104.295 268.692 95.532 266.82" stroke="#2A488F" stroke-width="10" stroke-miterlimit="10" stroke-linecap="round" stroke-linejoin="round"/>
<path d="M76.769 280.229C81.003 281.133 85.311 285.112 89.315 287.072" stroke="#2A488F" stroke-width="10" stroke-miterlimit="10" stroke-linecap="round" stroke-linejoin="round"/>
<path d="M82.822 283.793C82.088 287.232 80.995 291.931 81.873 295.326" stroke="#2A488F" stroke-width="10" stroke-miterlimit="10" stroke-linecap="round" stroke-linejoin="round"/>
<path d="M202.643 199.195C202.643 199.195 191.919 186.24 172.335 183.617C138.731 179.115 84.836 190.563 76.769 261.428" stroke="#2A488F" stroke-width="10" stroke-miterlimit="10" stroke-linejoin="round"/>
<path d="M287.012 63.333C273.791 57.674 260.132 59.17 245.868 58.813C217.356 58.099 165.618 56.099 138.261 63.18C124.932 66.63 127.955 90.686 126.579 101.442C126.258 103.948 124.98 111.395 124.497 118.716C123.976 126.623 124.382 134.385 127.926 135.618C138.442 139.276 150.852 139.224 161.426 138.423C186.555 136.518 213.357 137.522 238.58 138.423C252.5 138.92 269.301 135.501 282.983 138.423C285.896 139.045 296.982 143.797 298.071 142.736C299.907 140.948 295.651 125.247 295.135 122.801C292.139 108.596 302.058 69.772 287.012 63.333Z" stroke="#2A488F" stroke-width="10" stroke-miterlimit="10" stroke-linecap="round" stroke-linejoin="round"/>
<path d="M292.009 260.686C291.284 264.051 296.257 305.361 298.173 306.798C299.418 307.731 326.901 301.182 327.334 299.448C327.62 298.307 323.245 272.599 323.067 272.421C319.241 268.595 308.054 274.769 305.76 271.71C302.403 267.235 306.418 256.853 299.596 253.929C295.333 252.102 292.658 257.674 292.009 260.686Z" stroke="#2A488F" stroke-width="10" stroke-miterlimit="10" stroke-linecap="round" stroke-linejoin="round"/>
<path d="M288.465 275.137C285.791 275.448 279.39 274.296 277.552 276.618C276.86 277.491 281.465 307.602 283.466 309.186C285.829 311.058 295.285 307.387 297.93 307.08" stroke="#2A488F" stroke-width="10" stroke-miterlimit="10" stroke-linecap="round" stroke-linejoin="round"/>
<path d="M177.49 298.513C178.747 294.576 184.918 294.597 188.676 292.972C190.663 292.113 198.963 287.724 201.222 289.418C204.212 291.66 202.018 304.376 198.922 306.145C193.034 309.509 174.859 306.754 177.49 298.513Z" stroke="#2A488F" stroke-width="10" stroke-miterlimit="10" stroke-linecap="round" stroke-linejoin="round"/>
<path d="M259.638 223.914C260.033 226.912 255.205 235.406 256.388 237.771C257.669 240.333 274.356 229.857 276.916 229.217C280.5 228.321 308.448 227.795 309.762 226.48C310.294 225.949 310.104 225.086 310.104 224.427C310.104 220.584 312.739 191.162 311.473 190.213C307.196 187.005 292.514 187.976 287.706 187.976C280.849 187.976 266.945 187.501 260.836 190.555C259.483 191.232 259.064 219.552 259.638 223.914Z" stroke="#2A488F" stroke-width="10" stroke-miterlimit="10" stroke-linecap="round" stroke-linejoin="round"/>
<path d="M196.746 218.253C202.56 226.059 227.558 229.459 228.685 222.094" stroke="#2A488F" stroke-width="10" stroke-miterlimit="10" stroke-linecap="round" stroke-linejoin="round"/>
</g>
<path d="M106.68 385.32C105.24 385.32 103.98 385.033 102.9 384.46C101.833 383.873 101 383.053 100.4 382C99.8133 380.947 99.52 379.72 99.52 378.32C99.52 376.88 99.8267 375.607 100.44 374.5C101.067 373.393 101.92 372.527 103 371.9C104.093 371.26 105.347 370.94 106.76 370.94C108.333 370.94 109.567 371.247 110.46 371.86L109.92 375.04C109.533 374.853 109.127 374.72 108.7 374.64C108.287 374.547 107.893 374.5 107.52 374.5C106.427 374.5 105.567 374.827 104.94 375.48C104.313 376.133 104 377.04 104 378.2C104 379.293 104.3 380.153 104.9 380.78C105.513 381.393 106.36 381.7 107.44 381.7C107.867 381.7 108.253 381.66 108.6 381.58C108.96 381.5 109.4 381.353 109.92 381.14L110.48 384.3C109.32 384.98 108.053 385.32 106.68 385.32ZM116.803 385.16C115.67 385.16 114.67 384.94 113.803 384.5C112.936 384.06 112.256 383.453 111.763 382.68C111.283 381.893 111.043 380.993 111.043 379.98C111.043 378.94 111.29 378.04 111.783 377.28C112.29 376.507 112.976 375.907 113.843 375.48C114.71 375.053 115.703 374.84 116.823 374.84C117.97 374.84 118.976 375.06 119.843 375.5C120.71 375.927 121.383 376.527 121.863 377.3C122.343 378.06 122.583 378.953 122.583 379.98C122.583 381.007 122.336 381.913 121.843 382.7C121.363 383.473 120.69 384.08 119.823 384.52C118.956 384.947 117.95 385.16 116.803 385.16ZM116.843 382.16C117.39 382.16 117.836 381.96 118.183 381.56C118.543 381.147 118.723 380.62 118.723 379.98C118.723 379.34 118.55 378.82 118.203 378.42C117.856 378.007 117.416 377.8 116.883 377.8C116.31 377.8 115.843 378.007 115.483 378.42C115.136 378.82 114.963 379.34 114.963 379.98C114.963 380.62 115.136 381.147 115.483 381.56C115.843 381.96 116.296 382.16 116.843 382.16ZM124.082 385V374.98H128.242V377.16C128.535 376.413 128.955 375.84 129.502 375.44C130.062 375.04 130.762 374.84 131.602 374.84C132.429 374.84 133.129 375.047 133.702 375.46C134.289 375.86 134.702 376.38 134.942 377.02C135.395 376.34 135.929 375.807 136.542 375.42C137.169 375.033 137.922 374.84 138.802 374.84C140.042 374.84 141.002 375.293 141.682 376.2C142.362 377.093 142.702 378.36 142.702 380V385H138.482V379.78C138.482 378.593 138.062 378 137.222 378C136.702 378 136.282 378.213 135.962 378.64C135.655 379.053 135.502 379.613 135.502 380.32V385H131.282V379.78C131.282 379.153 131.175 378.7 130.962 378.42C130.749 378.14 130.435 378 130.022 378C129.502 378 129.082 378.207 128.762 378.62C128.455 379.02 128.302 379.587 128.302 380.32V385H124.082ZM144.609 385V374.98H148.769V377.16C149.063 376.413 149.483 375.84 150.029 375.44C150.589 375.04 151.289 374.84 152.129 374.84C152.956 374.84 153.656 375.047 154.229 375.46C154.816 375.86 155.229 376.38 155.469 377.02C155.923 376.34 156.456 375.807 157.069 375.42C157.696 375.033 158.449 374.84 159.329 374.84C160.569 374.84 161.529 375.293 162.209 376.2C162.889 377.093 163.229 378.36 163.229 380V385H159.009V379.78C159.009 378.593 158.589 378 157.749 378C157.229 378 156.809 378.213 156.489 378.64C156.183 379.053 156.029 379.613 156.029 380.32V385H151.809V379.78C151.809 379.153 151.703 378.7 151.489 378.42C151.276 378.14 150.963 378 150.549 378C150.029 378 149.609 378.207 149.289 378.62C148.983 379.02 148.829 379.587 148.829 380.32V385H144.609ZM170.359 385.16C168.665 385.16 167.339 384.733 166.379 383.88C165.432 383.013 164.959 381.82 164.959 380.3V374.98H169.079V380.48C169.079 381.013 169.192 381.407 169.419 381.66C169.659 381.913 169.979 382.04 170.379 382.04C170.765 382.04 171.065 381.913 171.279 381.66C171.505 381.407 171.619 381.013 171.619 380.48V374.98H175.659V380.3C175.659 381.833 175.192 383.027 174.259 383.88C173.339 384.733 172.039 385.16 170.359 385.16ZM177.559 385V374.98H181.719V377.16C182.025 376.413 182.479 375.84 183.079 375.44C183.692 375.04 184.419 374.84 185.259 374.84C186.565 374.84 187.579 375.293 188.299 376.2C189.019 377.093 189.379 378.36 189.379 380V385H185.159V379.78C185.159 378.593 184.679 378 183.719 378C183.145 378 182.679 378.213 182.319 378.64C181.959 379.053 181.779 379.613 181.779 380.32V385H177.559ZM194.97 385.16C194.076 385.16 193.35 385 192.79 384.68C192.243 384.36 191.843 383.927 191.59 383.38C191.336 382.833 191.21 382.22 191.21 381.54V374.98H195.43V380.96C195.43 381.267 195.516 381.507 195.69 381.68C195.876 381.84 196.096 381.92 196.35 381.92C196.616 381.92 196.89 381.84 197.17 381.68L197.39 384.46C197.096 384.687 196.716 384.86 196.25 384.98C195.783 385.1 195.356 385.16 194.97 385.16ZM193.33 373.88C192.716 373.88 192.19 373.687 191.75 373.3C191.31 372.9 191.09 372.413 191.09 371.84C191.09 371.44 191.196 371.093 191.41 370.8C191.623 370.493 191.903 370.253 192.25 370.08C192.596 369.907 192.956 369.82 193.33 369.82C193.743 369.82 194.116 369.913 194.45 370.1C194.796 370.287 195.07 370.533 195.27 370.84C195.483 371.147 195.59 371.48 195.59 371.84C195.59 372.24 195.476 372.593 195.25 372.9C195.036 373.207 194.756 373.447 194.41 373.62C194.076 373.793 193.716 373.88 193.33 373.88ZM206 388.78V383.14C205.694 383.793 205.274 384.293 204.74 384.64C204.207 384.987 203.54 385.16 202.74 385.16C201.82 385.16 200.987 384.94 200.24 384.5C199.494 384.047 198.9 383.427 198.46 382.64C198.034 381.853 197.82 380.953 197.82 379.94C197.82 378.927 198.034 378.04 198.46 377.28C198.9 376.52 199.494 375.927 200.24 375.5C200.987 375.06 201.82 374.84 202.74 374.84C203.394 374.84 204.027 375.02 204.64 375.38C205.254 375.74 205.727 376.333 206.06 377.16V374.98H210.22V388.16L206 388.78ZM204.04 382C204.587 382 205.054 381.807 205.44 381.42C205.827 381.02 206.02 380.533 206.02 379.96C206.02 379.387 205.827 378.92 205.44 378.56C205.054 378.187 204.587 378 204.04 378C203.467 378 202.987 378.193 202.6 378.58C202.214 378.967 202.02 379.44 202.02 380C202.02 380.56 202.214 381.033 202.6 381.42C202.987 381.807 203.467 382 204.04 382ZM217.527 385.16C215.833 385.16 214.507 384.733 213.547 383.88C212.6 383.013 212.127 381.82 212.127 380.3V374.98H216.247V380.48C216.247 381.013 216.36 381.407 216.587 381.66C216.827 381.913 217.147 382.04 217.547 382.04C217.933 382.04 218.233 381.913 218.447 381.66C218.673 381.407 218.787 381.013 218.787 380.48V374.98H222.827V380.3C222.827 381.833 222.36 383.027 221.427 383.88C220.507 384.733 219.207 385.16 217.527 385.16ZM230.947 382.36C231.333 382.36 231.74 382.32 232.167 382.24C232.607 382.16 233.053 382.013 233.507 381.8L233.987 384.38C233.493 384.633 232.953 384.827 232.367 384.96C231.793 385.093 231.133 385.16 230.387 385.16C229.04 385.16 227.907 384.94 226.987 384.5C226.08 384.06 225.393 383.453 224.927 382.68C224.46 381.907 224.227 381.013 224.227 380C224.227 378.96 224.473 378.053 224.967 377.28C225.473 376.507 226.147 375.907 226.987 375.48C227.827 375.053 228.753 374.84 229.767 374.84C231.273 374.84 232.427 375.313 233.227 376.26C234.027 377.193 234.427 378.527 234.427 380.26L228.467 381.02C228.907 381.913 229.733 382.36 230.947 382.36ZM228.147 379.18L231.287 378.52C231.233 378.093 231.087 377.78 230.847 377.58C230.607 377.367 230.307 377.26 229.947 377.26C229.413 377.26 228.987 377.447 228.667 377.82C228.36 378.18 228.187 378.633 228.147 379.18ZM235.42 385V382.86L239.04 377.74H235.56V374.98H243.88V377.14L240.44 382.24H243.96V385H235.42ZM252.536 385.16C251.936 385.16 251.33 385.1 250.716 384.98C250.103 384.86 249.55 384.693 249.056 384.48L249.636 381.96C249.943 382.12 250.363 382.26 250.896 382.38C251.43 382.487 251.903 382.54 252.316 382.54C252.983 382.54 253.316 382.36 253.316 382C253.316 381.827 253.21 381.7 252.996 381.62C252.796 381.54 252.53 381.473 252.196 381.42C251.876 381.353 251.53 381.273 251.156 381.18C250.783 381.073 250.43 380.92 250.096 380.72C249.776 380.507 249.51 380.207 249.296 379.82C249.096 379.433 248.996 378.927 248.996 378.3C248.996 377.247 249.41 376.407 250.236 375.78C251.076 375.153 252.223 374.84 253.676 374.84C254.236 374.84 254.756 374.88 255.236 374.96C255.73 375.04 256.196 375.207 256.636 375.46L256.216 377.9C255.51 377.607 254.77 377.46 253.996 377.46C253.503 377.46 253.143 377.5 252.916 377.58C252.703 377.66 252.596 377.793 252.596 377.98C252.596 378.127 252.703 378.24 252.916 378.32C253.13 378.4 253.403 378.48 253.736 378.56C254.083 378.627 254.443 378.727 254.816 378.86C255.19 378.98 255.543 379.153 255.876 379.38C256.223 379.607 256.503 379.913 256.716 380.3C256.93 380.673 257.036 381.16 257.036 381.76C257.036 382.827 256.643 383.66 255.856 384.26C255.07 384.86 253.963 385.16 252.536 385.16ZM262.858 385.16C261.938 385.16 261.104 384.94 260.358 384.5C259.611 384.047 259.018 383.427 258.578 382.64C258.151 381.853 257.938 380.953 257.938 379.94C257.938 378.927 258.151 378.04 258.578 377.28C259.018 376.52 259.611 375.927 260.358 375.5C261.104 375.06 261.938 374.84 262.858 374.84C263.511 374.84 264.144 375.02 264.758 375.38C265.371 375.74 265.844 376.333 266.178 377.16V374.98H270.338V385H266.138V383.14C265.818 383.793 265.391 384.293 264.858 384.64C264.324 384.987 263.658 385.16 262.858 385.16ZM264.158 382C264.704 382 265.171 381.807 265.558 381.42C265.944 381.02 266.138 380.533 266.138 379.96C266.138 379.387 265.944 378.92 265.558 378.56C265.171 378.187 264.704 378 264.158 378C263.584 378 263.104 378.193 262.717 378.58C262.331 378.967 262.138 379.44 262.138 380C262.138 380.56 262.331 381.033 262.717 381.42C263.104 381.807 263.584 382 264.158 382ZM272.344 385V374.98H276.504V377.16C276.81 376.413 277.264 375.84 277.864 375.44C278.477 375.04 279.204 374.84 280.044 374.84C281.35 374.84 282.364 375.293 283.084 376.2C283.804 377.093 284.164 378.36 284.164 380V385H279.944V379.78C279.944 378.593 279.464 378 278.504 378C277.93 378 277.464 378.213 277.104 378.64C276.744 379.053 276.564 379.613 276.564 380.32V385H272.344ZM289.275 385.16C288.675 385.16 288.068 385.1 287.455 384.98C286.841 384.86 286.288 384.693 285.795 384.48L286.375 381.96C286.681 382.12 287.101 382.26 287.635 382.38C288.168 382.487 288.641 382.54 289.055 382.54C289.721 382.54 290.055 382.36 290.055 382C290.055 381.827 289.948 381.7 289.735 381.62C289.535 381.54 289.268 381.473 288.935 381.42C288.615 381.353 288.268 381.273 287.895 381.18C287.521 381.073 287.168 380.92 286.835 380.72C286.515 380.507 286.248 380.207 286.035 379.82C285.835 379.433 285.735 378.927 285.735 378.3C285.735 377.247 286.148 376.407 286.975 375.78C287.815 375.153 288.961 374.84 290.415 374.84C290.975 374.84 291.495 374.88 291.975 374.96C292.468 375.04 292.935 375.207 293.375 375.46L292.955 377.9C292.248 377.607 291.508 377.46 290.735 377.46C290.241 377.46 289.881 377.5 289.655 377.58C289.441 377.66 289.335 377.793 289.335 377.98C289.335 378.127 289.441 378.24 289.655 378.32C289.868 378.4 290.141 378.48 290.475 378.56C290.821 378.627 291.181 378.727 291.555 378.86C291.928 378.98 292.281 379.153 292.615 379.38C292.961 379.607 293.241 379.913 293.455 380.3C293.668 380.673 293.775 381.16 293.775 381.76C293.775 382.827 293.381 383.66 292.595 384.26C291.808 384.86 290.701 385.16 289.275 385.16ZM302.126 385.16C301.526 385.16 300.92 385.1 300.306 384.98C299.693 384.86 299.14 384.693 298.646 384.48L299.226 381.96C299.533 382.12 299.953 382.26 300.486 382.38C301.02 382.487 301.493 382.54 301.906 382.54C302.573 382.54 302.906 382.36 302.906 382C302.906 381.827 302.8 381.7 302.586 381.62C302.386 381.54 302.12 381.473 301.786 381.42C301.466 381.353 301.12 381.273 300.746 381.18C300.373 381.073 300.02 380.92 299.686 380.72C299.366 380.507 299.1 380.207 298.886 379.82C298.686 379.433 298.586 378.927 298.586 378.3C298.586 377.247 299 376.407 299.826 375.78C300.666 375.153 301.813 374.84 303.266 374.84C303.826 374.84 304.346 374.88 304.826 374.96C305.32 375.04 305.786 375.207 306.226 375.46L305.806 377.9C305.1 377.607 304.36 377.46 303.586 377.46C303.093 377.46 302.733 377.5 302.506 377.58C302.293 377.66 302.186 377.793 302.186 377.98C302.186 378.127 302.293 378.24 302.506 378.32C302.72 378.4 302.993 378.48 303.326 378.56C303.673 378.627 304.033 378.727 304.406 378.86C304.78 378.98 305.133 379.153 305.466 379.38C305.813 379.607 306.093 379.913 306.306 380.3C306.52 380.673 306.626 381.16 306.626 381.76C306.626 382.827 306.233 383.66 305.446 384.26C304.66 384.86 303.553 385.16 302.126 385.16ZM313.287 385.16C312.154 385.16 311.154 384.94 310.287 384.5C309.421 384.06 308.741 383.453 308.247 382.68C307.767 381.893 307.527 380.993 307.527 379.98C307.527 378.94 307.774 378.04 308.267 377.28C308.774 376.507 309.461 375.907 310.327 375.48C311.194 375.053 312.187 374.84 313.307 374.84C314.454 374.84 315.461 375.06 316.327 375.5C317.194 375.927 317.867 376.527 318.347 377.3C318.827 378.06 319.067 378.953 319.067 379.98C319.067 381.007 318.821 381.913 318.327 382.7C317.847 383.473 317.174 384.08 316.307 384.52C315.441 384.947 314.434 385.16 313.287 385.16ZM313.327 382.16C313.874 382.16 314.321 381.96 314.667 381.56C315.027 381.147 315.207 380.62 315.207 379.98C315.207 379.34 315.034 378.82 314.687 378.42C314.341 378.007 313.901 377.8 313.367 377.8C312.794 377.8 312.327 378.007 311.967 378.42C311.621 378.82 311.447 379.34 311.447 379.98C311.447 380.62 311.621 381.147 311.967 381.56C312.327 381.96 312.781 382.16 313.327 382.16ZM325.866 385.16C324.173 385.16 322.846 384.733 321.886 383.88C320.94 383.013 320.466 381.82 320.466 380.3V374.98H324.586V380.48C324.586 381.013 324.7 381.407 324.926 381.66C325.166 381.913 325.486 382.04 325.886 382.04C326.273 382.04 326.573 381.913 326.786 381.66C327.013 381.407 327.126 381.013 327.126 380.48V374.98H331.166V380.3C331.166 381.833 330.7 383.027 329.766 383.88C328.846 384.733 327.546 385.16 325.866 385.16ZM338.006 385.16C336.886 385.16 335.92 384.94 335.106 384.5C334.293 384.06 333.666 383.46 333.226 382.7C332.786 381.927 332.566 381.04 332.566 380.04C332.566 379.053 332.793 378.167 333.246 377.38C333.7 376.593 334.333 375.973 335.146 375.52C335.973 375.067 336.926 374.84 338.006 374.84C339.3 374.84 340.32 375.107 341.066 375.64L340.626 378.36C340.293 378.213 339.98 378.113 339.686 378.06C339.393 377.993 339.113 377.96 338.846 377.96C338.193 377.96 337.673 378.147 337.286 378.52C336.913 378.88 336.726 379.373 336.726 380C336.726 380.613 336.913 381.113 337.286 381.5C337.66 381.873 338.153 382.06 338.766 382.06C339.3 382.06 339.926 381.947 340.646 381.72L341.026 384.52C340.586 384.733 340.126 384.893 339.646 385C339.18 385.107 338.633 385.16 338.006 385.16ZM346.259 385.16C345.365 385.16 344.639 385 344.079 384.68C343.532 384.36 343.132 383.927 342.879 383.38C342.625 382.833 342.499 382.22 342.499 381.54V374.98H346.719V380.96C346.719 381.267 346.805 381.507 346.979 381.68C347.165 381.84 347.385 381.92 347.639 381.92C347.905 381.92 348.179 381.84 348.459 381.68L348.679 384.46C348.385 384.687 348.005 384.86 347.539 384.98C347.072 385.1 346.645 385.16 346.259 385.16ZM344.619 373.88C344.005 373.88 343.479 373.687 343.039 373.3C342.599 372.9 342.379 372.413 342.379 371.84C342.379 371.44 342.485 371.093 342.699 370.8C342.912 370.493 343.192 370.253 343.539 370.08C343.885 369.907 344.245 369.82 344.619 369.82C345.032 369.82 345.405 369.913 345.739 370.1C346.085 370.287 346.359 370.533 346.559 370.84C346.772 371.147 346.879 371.48 346.879 371.84C346.879 372.24 346.765 372.593 346.539 372.9C346.325 373.207 346.045 373.447 345.699 373.62C345.365 373.793 345.005 373.88 344.619 373.88ZM352.927 385.16C352.327 385.16 351.72 385.1 351.107 384.98C350.494 384.86 349.94 384.693 349.447 384.48L350.027 381.96C350.334 382.12 350.754 382.26 351.287 382.38C351.82 382.487 352.294 382.54 352.707 382.54C353.374 382.54 353.707 382.36 353.707 382C353.707 381.827 353.6 381.7 353.387 381.62C353.187 381.54 352.92 381.473 352.587 381.42C352.267 381.353 351.92 381.273 351.547 381.18C351.174 381.073 350.82 380.92 350.487 380.72C350.167 380.507 349.9 380.207 349.687 379.82C349.487 379.433 349.387 378.927 349.387 378.3C349.387 377.247 349.8 376.407 350.627 375.78C351.467 375.153 352.614 374.84 354.067 374.84C354.627 374.84 355.147 374.88 355.627 374.96C356.12 375.04 356.587 375.207 357.027 375.46L356.607 377.9C355.9 377.607 355.16 377.46 354.387 377.46C353.894 377.46 353.534 377.5 353.307 377.58C353.094 377.66 352.987 377.793 352.987 377.98C352.987 378.127 353.094 378.24 353.307 378.32C353.52 378.4 353.794 378.48 354.127 378.56C354.474 378.627 354.834 378.727 355.207 378.86C355.58 378.98 355.934 379.153 356.267 379.38C356.614 379.607 356.894 379.913 357.107 380.3C357.32 380.673 357.427 381.16 357.427 381.76C357.427 382.827 357.034 383.66 356.247 384.26C355.46 384.86 354.354 385.16 352.927 385.16ZM366.979 385.16C366.059 385.16 365.225 384.94 364.479 384.5C363.732 384.047 363.139 383.427 362.699 382.64C362.272 381.853 362.059 380.953 362.059 379.94C362.059 378.927 362.272 378.04 362.699 377.28C363.139 376.52 363.732 375.927 364.479 375.5C365.225 375.06 366.059 374.84 366.979 374.84C367.632 374.84 368.265 375.02 368.879 375.38C369.492 375.74 369.965 376.333 370.299 377.16V374.98H374.459V385H370.259V383.14C369.939 383.793 369.512 384.293 368.979 384.64C368.445 384.987 367.779 385.16 366.979 385.16ZM368.279 382C368.825 382 369.292 381.807 369.679 381.42C370.065 381.02 370.259 380.533 370.259 379.96C370.259 379.387 370.065 378.92 369.679 378.56C369.292 378.187 368.825 378 368.279 378C367.705 378 367.225 378.193 366.839 378.58C366.452 378.967 366.259 379.44 366.259 380C366.259 380.56 366.452 381.033 366.839 381.42C367.225 381.807 367.705 382 368.279 382ZM378.785 385L375.285 374.98H379.925L381.665 380.98L383.365 374.98H387.025L383.645 385H378.785ZM394.013 382.36C394.4 382.36 394.806 382.32 395.233 382.24C395.673 382.16 396.12 382.013 396.573 381.8L397.053 384.38C396.56 384.633 396.02 384.827 395.433 384.96C394.86 385.093 394.2 385.16 393.453 385.16C392.106 385.16 390.973 384.94 390.053 384.5C389.146 384.06 388.46 383.453 387.993 382.68C387.526 381.907 387.293 381.013 387.293 380C387.293 378.96 387.54 378.053 388.033 377.28C388.54 376.507 389.213 375.907 390.053 375.48C390.893 375.053 391.82 374.84 392.833 374.84C394.34 374.84 395.493 375.313 396.293 376.26C397.093 377.193 397.493 378.527 397.493 380.26L391.533 381.02C391.973 381.913 392.8 382.36 394.013 382.36ZM391.213 379.18L394.353 378.52C394.3 378.093 394.153 377.78 393.913 377.58C393.673 377.367 393.373 377.26 393.013 377.26C392.48 377.26 392.053 377.447 391.733 377.82C391.426 378.18 391.253 378.633 391.213 379.18ZM403.827 385.16C402.707 385.16 401.74 384.94 400.927 384.5C400.113 384.06 399.487 383.46 399.047 382.7C398.607 381.927 398.387 381.04 398.387 380.04C398.387 379.053 398.613 378.167 399.067 377.38C399.52 376.593 400.153 375.973 400.967 375.52C401.793 375.067 402.747 374.84 403.827 374.84C405.12 374.84 406.14 375.107 406.887 375.64L406.447 378.36C406.113 378.213 405.8 378.113 405.507 378.06C405.213 377.993 404.933 377.96 404.667 377.96C404.013 377.96 403.493 378.147 403.107 378.52C402.733 378.88 402.547 379.373 402.547 380C402.547 380.613 402.733 381.113 403.107 381.5C403.48 381.873 403.973 382.06 404.587 382.06C405.12 382.06 405.747 381.947 406.467 381.72L406.847 384.52C406.407 384.733 405.947 384.893 405.467 385C405 385.107 404.453 385.16 403.827 385.16Z" fill="black"/>
<rect x="421" y="363.25" width="193.125" height="28.125" fill="#B1C3EC"/>
<path d="M583.575 392.872C583.239 393.258 582.17 394.035 581.416 394.595C580.825 395.033 580.129 395.396 579.496 395.785C578.864 396.175 578.185 396.562 577.601 396.807C577.455 396.855 577.31 396.903 577.016 396.953" stroke="#2A488F" stroke-width="1.875" stroke-linecap="round"/>
<path d="M442.675 387H430.975V356.04H443.62C448.57 356.04 452.2 356.73 454.51 358.11C456.82 359.46 457.975 361.335 457.975 363.735C457.975 366.855 456.34 369 453.07 370.17C457.27 370.98 459.37 373.455 459.37 377.595C459.37 380.775 457.915 383.145 455.005 384.705C452.125 386.235 448.015 387 442.675 387ZM441.01 368.28H444.565C445.765 368.28 446.74 368.01 447.49 367.47C448.24 366.93 448.615 366.21 448.615 365.31C448.615 363.24 447.205 362.205 444.385 362.205H441.01V368.28ZM444.835 380.655C446.335 380.655 447.49 380.355 448.3 379.755C449.11 379.155 449.515 378.315 449.515 377.235C449.515 376.065 449.11 375.165 448.3 374.535C447.49 373.875 446.335 373.545 444.835 373.545H440.965V380.655H444.835ZM462.742 387V364.455H472.102V370.08C472.702 368.04 473.632 366.54 474.892 365.58C476.182 364.62 477.712 364.14 479.482 364.14L480.607 372.105C479.887 372.015 479.182 371.97 478.492 371.97C474.322 371.97 472.237 373.68 472.237 377.1V387H462.742ZM496.205 381.06C497.075 381.06 497.99 380.97 498.95 380.79C499.94 380.61 500.945 380.28 501.965 379.8L503.045 385.605C501.935 386.175 500.72 386.61 499.4 386.91C498.11 387.21 496.625 387.36 494.945 387.36C491.915 387.36 489.365 386.865 487.295 385.875C485.255 384.885 483.71 383.52 482.66 381.78C481.61 380.04 481.085 378.03 481.085 375.75C481.085 373.41 481.64 371.37 482.75 369.63C483.89 367.89 485.405 366.54 487.295 365.58C489.185 364.62 491.27 364.14 493.55 364.14C496.94 364.14 499.535 365.205 501.335 367.335C503.135 369.435 504.035 372.435 504.035 376.335L490.625 378.045C491.615 380.055 493.475 381.06 496.205 381.06ZM489.905 373.905L496.97 372.42C496.85 371.46 496.52 370.755 495.98 370.305C495.44 369.825 494.765 369.585 493.955 369.585C492.755 369.585 491.795 370.005 491.075 370.845C490.385 371.655 489.995 372.675 489.905 373.905ZM521.166 381.06C522.036 381.06 522.951 380.97 523.911 380.79C524.901 380.61 525.906 380.28 526.926 379.8L528.006 385.605C526.896 386.175 525.681 386.61 524.361 386.91C523.071 387.21 521.586 387.36 519.906 387.36C516.876 387.36 514.326 386.865 512.256 385.875C510.216 384.885 508.671 383.52 507.621 381.78C506.571 380.04 506.046 378.03 506.046 375.75C506.046 373.41 506.601 371.37 507.711 369.63C508.851 367.89 510.366 366.54 512.256 365.58C514.146 364.62 516.231 364.14 518.511 364.14C521.901 364.14 524.496 365.205 526.296 367.335C528.096 369.435 528.996 372.435 528.996 376.335L515.586 378.045C516.576 380.055 518.436 381.06 521.166 381.06ZM514.866 373.905L521.931 372.42C521.811 371.46 521.481 370.755 520.941 370.305C520.401 369.825 519.726 369.585 518.916 369.585C517.716 369.585 516.756 370.005 516.036 370.845C515.346 371.655 514.956 372.675 514.866 373.905ZM531.232 387V382.185L539.377 370.665H531.547V364.455H550.267V369.315L542.527 380.79H550.447V387H531.232ZM565.939 395.775C564.799 395.775 563.734 395.7 562.744 395.55C561.754 395.4 560.974 395.22 560.404 395.01L561.124 388.485C561.664 388.605 562.249 388.695 562.879 388.755C563.509 388.845 564.124 388.89 564.724 388.89C566.734 388.89 568.174 388.47 569.044 387.63C569.944 386.79 570.394 385.5 570.394 383.76V381.195C569.674 383.025 568.654 384.36 567.334 385.2C566.014 386.01 564.454 386.415 562.654 386.415C559.864 386.415 557.704 385.41 556.174 383.4C554.644 381.36 553.879 378.495 553.879 374.805V364.455H563.374V375.3C563.374 377.97 564.319 379.305 566.209 379.305C567.379 379.305 568.309 378.825 568.999 377.865C569.719 376.905 570.079 375.645 570.079 374.085V364.455H579.574V381.735C579.574 386.535 578.389 390.075 576.019 392.355C573.649 394.635 570.289 395.775 565.939 395.775Z" fill="#2A488F"/>
<path d="M587.862 376.288V384.038" stroke="white" stroke-width="1.875" stroke-linecap="round"/>
<path d="M587.862 372.766C587.862 372.534 587.862 371.251 587.92 369.316C588.095 368.194 588.563 367.137 589.208 365.906C589.504 365.373 589.736 365.024 589.976 364.312" stroke="white" stroke-width="1.875" stroke-linecap="round"/>
<path d="M592.441 360.79C593.259 359.621 594.9 358.212 596.603 356.687C597.366 356.098 598.074 355.626 598.951 355.1C599.479 354.806 600.176 354.457 601.247 354.098" stroke="#2A488F" stroke-width="1.875" stroke-linecap="round"/>
<path d="M587.948 387.333C587.9 387.671 587.706 388.35 587.391 388.934C587.123 389.518 586.735 390.099 586.225 390.562C586.103 390.684 586.007 390.828 585.616 391.122" stroke="white" stroke-width="1.875" stroke-linecap="round"/>
<path d="M604.58 360.26C606.208 356.477 607.273 349.065 598.512 349.68L618.296 348.291L607.256 357.925L604.58 360.26Z" stroke="#2A488F" stroke-width="1.875"/>
<path d="M605.473 353.202L617.754 348.616" stroke="#2A488F" stroke-width="1.875"/>
<defs>
<clipPath id="clip0_17_36">
<rect width="524.317" height="295.635" fill="white" transform="translate(59 53)"/>
</clipPath>
</defs>
</svg>
